<mxfile host="app.diagrams.net" modified="2023-05-08T08:08:09.371Z" agent="Mozilla/5.0 (Windows NT 10.0; Win64; x64) AppleWebKit/537.36 (KHTML, like Gecko) Chrome/112.0.0.0 Safari/537.36 Edg/112.0.1722.68" etag="2IkAuqrXfdDy8oOUmvY1" version="21.2.9" type="github">
  <diagram name="第 1 页" id="oyyRL3EKb9Zoqq3U5nI3">
    <mxGraphModel dx="693" dy="372" grid="0" gridSize="10" guides="1" tooltips="1" connect="1" arrows="1" fold="1" page="1" pageScale="1" pageWidth="2336" pageHeight="1654" math="0" shadow="0">
      <root>
        <mxCell id="0" />
        <mxCell id="1" parent="0" />
        <mxCell id="uut4hfN15O6eYL7KADeR-7" value="ML-100k" style="text;html=1;strokeColor=none;fillColor=none;align=center;verticalAlign=middle;whiteSpace=wrap;rounded=0;" parent="1" vertex="1">
          <mxGeometry x="144" y="289" width="60" height="30" as="geometry" />
        </mxCell>
        <mxCell id="uut4hfN15O6eYL7KADeR-8" value="ML-100k" style="text;html=1;strokeColor=none;fillColor=none;align=center;verticalAlign=middle;whiteSpace=wrap;rounded=0;" parent="1" vertex="1">
          <mxGeometry x="439" y="289" width="60" height="30" as="geometry" />
        </mxCell>
        <mxCell id="uut4hfN15O6eYL7KADeR-9" value="ML-100k" style="text;html=1;strokeColor=none;fillColor=none;align=center;verticalAlign=middle;whiteSpace=wrap;rounded=0;" parent="1" vertex="1">
          <mxGeometry x="725" y="289" width="60" height="30" as="geometry" />
        </mxCell>
        <mxCell id="uut4hfN15O6eYL7KADeR-10" value="ML-100k" style="text;html=1;strokeColor=none;fillColor=none;align=center;verticalAlign=middle;whiteSpace=wrap;rounded=0;" parent="1" vertex="1">
          <mxGeometry x="1015" y="289" width="60" height="30" as="geometry" />
        </mxCell>
        <mxCell id="uut4hfN15O6eYL7KADeR-11" value="Music" style="text;html=1;strokeColor=none;fillColor=none;align=center;verticalAlign=middle;whiteSpace=wrap;rounded=0;" parent="1" vertex="1">
          <mxGeometry x="274" y="289" width="60" height="30" as="geometry" />
        </mxCell>
        <mxCell id="uut4hfN15O6eYL7KADeR-12" value="Music" style="text;html=1;strokeColor=none;fillColor=none;align=center;verticalAlign=middle;whiteSpace=wrap;rounded=0;" parent="1" vertex="1">
          <mxGeometry x="562" y="289" width="60" height="30" as="geometry" />
        </mxCell>
        <mxCell id="uut4hfN15O6eYL7KADeR-13" value="Music" style="text;html=1;strokeColor=none;fillColor=none;align=center;verticalAlign=middle;whiteSpace=wrap;rounded=0;" parent="1" vertex="1">
          <mxGeometry x="855" y="289" width="60" height="30" as="geometry" />
        </mxCell>
        <mxCell id="uut4hfN15O6eYL7KADeR-14" value="Music" style="text;html=1;strokeColor=none;fillColor=none;align=center;verticalAlign=middle;whiteSpace=wrap;rounded=0;" parent="1" vertex="1">
          <mxGeometry x="1138" y="289" width="60" height="30" as="geometry" />
        </mxCell>
        <mxCell id="uut4hfN15O6eYL7KADeR-15" value="&lt;font style=&quot;font-size: 18px;&quot;&gt;(a) Recall@10&lt;/font&gt;" style="text;html=1;strokeColor=none;fillColor=none;align=center;verticalAlign=middle;whiteSpace=wrap;rounded=0;" parent="1" vertex="1">
          <mxGeometry x="146" y="322" width="188" height="30" as="geometry" />
        </mxCell>
        <mxCell id="uut4hfN15O6eYL7KADeR-16" value="&lt;font style=&quot;font-size: 18px;&quot;&gt;(b) Recall@20&lt;/font&gt;" style="text;html=1;strokeColor=none;fillColor=none;align=center;verticalAlign=middle;whiteSpace=wrap;rounded=0;" parent="1" vertex="1">
          <mxGeometry x="439" y="322" width="188" height="30" as="geometry" />
        </mxCell>
        <mxCell id="uut4hfN15O6eYL7KADeR-17" value="&lt;font style=&quot;font-size: 18px;&quot;&gt;(c) MRR&lt;/font&gt;" style="text;html=1;strokeColor=none;fillColor=none;align=center;verticalAlign=middle;whiteSpace=wrap;rounded=0;" parent="1" vertex="1">
          <mxGeometry x="720" y="322" width="188" height="30" as="geometry" />
        </mxCell>
        <mxCell id="uut4hfN15O6eYL7KADeR-18" value="&lt;font style=&quot;font-size: 18px;&quot;&gt;(d) NDCG@10&lt;/font&gt;" style="text;html=1;strokeColor=none;fillColor=none;align=center;verticalAlign=middle;whiteSpace=wrap;rounded=0;" parent="1" vertex="1">
          <mxGeometry x="1010" y="319" width="188" height="30" as="geometry" />
        </mxCell>
        <mxCell id="3sAKrGf5FiUx43U5iRsO-4" value="" style="shape=image;verticalLabelPosition=bottom;labelBackgroundColor=default;verticalAlign=top;aspect=fixed;imageAspect=0;image=data:image/png,iVBORw0KGgoAAAANSUhEUgAAAlIAAAGjCAMAAAGnIDv2AAAAAXNSR0IArs4c6QAAAARnQU1BAACxjwv8YQUAAABmUExURf////n5+WxsbFlZWcXFxdfX12BgYPHx8enp6WRkZKurq7+/v1xcXNvb26Ojo3l5efj4+Pz8/IuLi3h4eAAAAI2NjXp6esLCwvX19WhoaP/AANnZ2URyxACwUMAAADg4OCAgIAAAAL+nt3AAAAAidFJOU////////////////////////////////////////////wAN0MNxAAAACXBIWXMAABcRAAAXEQHKJvM/AAAbhElEQVR4Xu2d0VLjSLBEibAJhyHMA7NPN+4u9/+/8na1jruN3CmXGAOaIQ+7DFOTtKpTibEstfWwaXb8+fscT+XTP9PXd8FjZXl62BXzv7Ov/w3+J6BwwdeP9V/wb/CHjfV0KJ/uNFb8OP7tflW2ONYp/fN4e6zg5441137pWLvn8vvxn8cZoX0MLX+vjMaq/1B/Ds9c9RXae81xg2OF9g5jhfa3xnot//9zqoT2MbSn0J5CO/3DxGis6V+mkSbu1Vfw148VP0PTV7871vH0bO87XzlWeY5Znpzcq6847LD3Z750rKfD093G2vOn+Wp2dzxyr78dzddy39135MsVDH/iP8ZvD3XjcWgNXzrUL/68yc2hntM/g7e7SvPTh3r3lP4GX9fVGjYx1JX0q4c61QPtTkivDtDrEXo98Jv/O6MMCemdJri5oRakK4a6Jb3x7+VnsPwq3Ncj7JAuHJrXfz+N/p2xLgjpNiZ4yYaGunj+8btDXeChvmyoyyeQvznU5RPI3xzqEg/1hUM986cxhePDftXT26+GF6A2hrvK465uUH/84sKM0tX0NPULiF8MFf5eiRYGfLZX8ZuqUn9dVfiXJf7+ruJ3eaX+Qq+4KwE9fbirXXlidKivrd3zZ5CeOBqt1EPSyuXPYD2urZ9qN9d4DwLqJdwVoJ5zLMcAbw9v9cBwQ15NRybTz2D98j7Qk3OVgJ7c1fQKc8Bfr6GnD3cVl3BOL87c7IpB//cLuqo/fvVFni111XFXgHoJ0RWD/ruFrhj0v+/pqoZ9esa1na6edvu4XOb6kYFBv8mrC9wVoF7CXQHqa47xxM9pd1cz+G539fldlV+Bu/MrkNOlDhMM+t9jPdkePLaXLx7rhREB4mv4bs7VV+olFZX27Zffn3r1g0G9B8e4K0C9xJa6ilcgJ/75XujCGPPdHPcPp8sreLbBaYvXDGzkypZNPn66qSxuKoubyuKmsvSm6umR1038mulN7R72D6+v/EKOs/VfA4cO767V6U3VV7Hrpy+A4xlxQPRNmaInN3UTevq+pjhGXnGQ7aboyU0J6Onvaqo8oN9/1Tw9fbipdq34tA7rPtDTf4/tIrlTe5X51F9lDimXyb1r6mn3GQd+9OSg34Se3NRN6MlN3YSe3NRN6OljTZXjmN1hf/+XF+npQ03VywGePuG4j54+2FRpqPxGrgel94SeHPSb0JObugk9uamb0NNXNsWY70d9Bz25qTP8/Rp6+mhTT7uHF768AWOWURnzE50qv2jepi+4JkbBmOJKmvfQ0+WFPO37xxfyvG8q/eoiY36JU2kY003dhDHd1E0YcwtNMWYZlTHd1DsYs4zKmD+9qac4jpku93wPY35LU/Xyt/PxVbzMd4YxL68iHa+hFfDd/51GLy/eOLVWPHp+Gv32Y8xvcUrCmG7qJozppm7CmG7qJozppi7YPT8crl9eZMxvc2r44iJjfltT5bff9Xksxvy2poYwppu6CWO6qZswppu6CWO6qZsw5rc0FQcyu9EvGsb8lqamFUbnqxd5oS9gzBUL9d7Dd3/o5UX50iJjfotTEsZ0UzdhTDd1E8Z0UzdhTDd1E8b8tqZeN3rcNzXFQtfvovYAL7s9TRljjDHmm3maDkzl2/GaM+XJy2laqNKfxvA854eCCVecnuIVmLiB24VT/PkjWTV5O5XFTmWxU1nsVBY7lcVOZbFTWexUFjs14/jw8BwHMnG957vjPjs1ozgVb1Fe/qgnb9stIf94pziX0Ck1zip0Juk1w8nvdqcpVSVTu4vX+e1UFjuVxU5l+ZOc4kxnp9Twp1Nq+NOp3z3gr3CKM8GdUsOfTqnhT6fU8KcTA46wU3NiwBF2ak4MOMJOzYkBR9ipOTHgCD35I++N9dqvsrRTI8oxzCms2k2HNBU7NSIOk+NCqkJbr2KnstipLHYqi53KYqey2KksdiqLncpip7LYqRlx4eL0Liq7P+MsFv50Sg1/OqWGP51Sw59ODDhiNPm4cHE6gqnnZS6uyTudbr332reAP53SJv50ig5/OqWGP5064pz5W2tDvXBx/1yO/Orh8favXsSfTqnhT6fU8KdTavjTiQFHrJq8ncpip7LYqSx2KoudymKnsnyKUzTYob4C/OmUGv50Sg1/OqXGRjsx4Ag7NScGHPG1TtFgp9RosDNJ14A/nVLDn06psdFOqbHRTgw4Qk6eczOFOz5Hp8FOqdFgZ5KuAX86pYY/nVJjo51SY6OdGHDEklMc/JWvwE4NiUsY9/v7Xr1Ig51So8HOJF0D/nRKDX86pcZGO6XGRjsx4IhVk7dTWexUFjuVxU5lsVNZVolpsFNqNNgpNRrs1O9eBf50So2NdkqNjXZKjY12YsARdmpODDjiPk7RYKfUaLBTajTYKTUa7MSA62CjnVJjo51SY6OdUmOjnRhwxHDy08Vlh3jSuX+7eOppp2b0A5ns+T4a7JQaDXZKjQY7pUaDnRhwHWy0U2pstFNqbLRTamy0EwOOEE7Vg+PnyS7OkhbsVBY7lcVOZbFTWexUFjuVxU5lsVNZ7FQWOzXi8hLGM3ZqRPFnOvjrBzNx9SJX882gwc7jY7sjXqPUaLBTvpcGO9OQa2Cjncd7X71YepdO7V+KWc/P+5KthjOVxU5lsVNZ7FQWO5XFTmWxU1nsVBY7lcVOzYhzM/VN5OOIxmexQDg1HfJNx8aJqxdpsFNqNNgpNRrslBoNdmLAdbDRTqmx0U6psdFOqbHRTgw4Yjj56cLFw263O+SuXqTBTqnRYKfUaLBTajTYiQHXwUY7pcZGO6XGRjulxkY7MeAIOfkRdiqLncpip7LYqSx2KoudymKnstipIef3x3urnyt2asTskKZip0acL2G8dMoYY4wxxhhjjDFGMp0S3V2eGTUjftX//JrLTQ7Pk0t26han/dmlp+lF4sKvf34yKjOHp5an+CGs6NfcfwJy9m/x4vDu4TmztP1HsGb2diqLncpip7LYqSx2KoudymKnstipLHYqi53KYqey2KksdiqLncpip7LYqSx2KoudmnN82NezDM+/3p+bsVNzzicbfr27zaGduuJ8Auu13hDy8g2aT38hXK/foHzNwKkDTj2FU4Xpc+GPzxQrGxpRw6BGFY4YzZ4T7WeP7FRlNPu6nn36+Ss/fYk3AfhTwKBG1DCoUYUj1szeTmWxU1nsVBY7lcVOZfmjnGKlaCNqGNSIGgY1ojbkr3CKNbWNqGFQI2oY1IgaBjWiNsROzYjaEDs1I2pD7NSMqA2xUzOiNsROzYjaEDs1I2pD7NSMqA2xUzOiNsROzYjaEDs1I2pD9Ox3vJ1Sf1clOzXk/GL6sb2MbqeGnE/QHE52akLN/nzSb9dPzdTzffs49bWxT1f3m4k6BjVCiEGNIru630x87xCZqelE8ml3cWrUmRqym1atXZzus1Np7FQWO5XFTmWxU1nsVBY7lcVOZbFTWexUFjuVxU5lsVNZ7FQWO5XFTmWxU1ns1JzDdALrV72Af/e2/XfqwqBG1DCoETUMakQNgxpRGzKafVsNsp9eHz5jp2ac33axfrZTZwaz72+7eIzbqLy0916cVq09bg8Mapz2j48Y1AgdBjWK7OosVuiuGZ/Fmr/t4vSTWHCm5tQTWG/xtounP+O9FzGoETUMakQNgxpRw6BG1Iasmb2dymKnstipLHYqi53KYqey2KksdiqLncpip7LYqSx2KsvnOEWHDcprwKBG1DCoETUMakSNrTaiNsROzYjaEDs1I2pD7NSMqA2xUzOiNuRrnaLDRtTosFGF68CgRtQwqBE1ttqIGlttRG2InP3x4TlONTw9HO/46jAdNqJGh40qXAcGNaKGQY2osdVG1NhqI2pD5OzbaYfpPveBnRpx4qTf665YBvUsFqd1PgYdNqJGh40qXAcGNR5LmxjUCB1bbUSNrTaiNkKvxWon/e75joJ02IgaHTaqcB0Y1IgaBjWixlYbUWOrjagNkbP/FQ9VFTtVkbPnDRjv+96LdNiIGh02qnAdGNSIGgY1osZWG1Fjq42oDVkzezuVxU5lsVNZ7FQWO5XFTmWxU1nsVBY7lcVOZVnnFB12So0OG6Gjw0bUVoJBjaix0UbU2Gojamy1EbUhdmpG1IbYqRlRG2KnZkRtyH2cosNOqdFhp9TosBHfS4eNqK2EjTaixkYbUWOrjaix1UbUhtipGVEbYqdmRG3IcPbTqrXXt1/ly9SqNTrslBoddkqNDhvxvXTYiNpK2Ggjamy0ETW22ogaW21Ebcho9sWgaa3M0+F81qFip2b00zJ26oLB7Puqtfp5tmqN01/vocPO4ITbv/uvO9/3mDvfF5Nhq43QXXPaL65aI0+JVWt02Ck1OuyUGh024nvpsBG1lbDRRtTYaCNqbLURNbbaiNqQ0exZtVaNyq1ao8NOqdFhp9TosBHfS4eNqK2EjTaixkYbUWOrjaix1UbUhujZX2OnstipLHYqi53KYqey2KksdiqLncpip7LYqSx2KoudymKnstipLHYqi53KYqfGXJzKAjs15PJUFtipEf1U1oudqqjZz05lVVacxRqcRvr38bSnw0Z8Lx026oDrYKONqLHRRtTYaiNqbLURtWvKxGWmZqeyAmdqCHcQuzDKTqWxU1nsVBY7lcVOZbFTWexUFjuVxU5lsVNZ7FQWO5XFTmWxU1nsVBY7lcVOZbFTWezUjANvu7jf8V55Z+zUnCfe+O38roJn7NSMdgKrOhVvAgdxFouzOjPosPPNZ7G+6L0X20nRcKqQeEdBOuyUGh12So0OG/G9dNiI2krYaCNqbLQRNbbaiBpbbURtyGj25xPtduqS0ezb2y7ufpVPvoJjQs/+GjuVxU5lsVNZ7FQWO5XFTmWxU1nsVBY7lcVOZbFTWexUFjuVxU5lsVNZ7FQWOzVmWrX28Dq9RBzYqSG8mH7kxfTATo1oJ2j2dmpCzf7dST94++cn83+4MKetWrtwygzhDRjtlDHGGGOMMcYYY4wxxhhjjDHGmMph9/Tw8LzbT3877U7TF8Z8lGNJVGRqipIjZX6X/fT4xB/lz8CxMh/nMGXpFG/u0ji2905ocMWa+YmQgSyv9R0lps9nhpHiC/PTWL/rT+dfdfEcvf7lXbzAkfqxfNaud6R+LI6UuTOOlLkzjpS5M46UuTOOlLkzjpS5M46UuTOOlLkzjpS5M46UuTOOlLkzjpS5M46UuTOOlLkzjpS5M46UuTPZXX847nZvrLSq/NrF1cGxnOFttztMtQscqR9Lcte/1Nuu9ivOD8f9a0RKLrpypH4suV1/OrIuhsep0/H0UCO1d6T+cHj/cg26PLldz7K981Kr/bH8pquRqry8W4E18U/cDtlsH4KjQZcnF6m6ar09JtX1oOUZVEvS+yVYFT9KfTPcUUGDjuBo0OVJ7vr99E4IJVHP5yDVR6l6z5RXPz3fHgRHg47gaNDl+axd70h9MwRHg47gaNDlcaT+UgiOBh3B0aDL40j9pRAcDTqCo0GXx5H6SyE4GnQER4MujyP1l0JwNOgIjgZdHkfqD4NbMGrQERwNOoKjQZfHkdoI3MFTg47gaNARHA06gqNBl8eR2ggER4OO4GjQERwNOoKjQZfHkdoIBEeDjuBo0BEcDTqCo0GXx5HaCARHg47gaNARHA06gqNBl8eR2ggER4OO4GjQERwNOoKjQZfHkdoIBEeDjuBo0BEcDTqCo0GXx5HaCARHg47gaNARHA06gqNBl8eR2ggER4OO4GjQERwNOoKjQZfHkdoIBEeDjuBo0BEcDTqCo0GXx5HaCARHg47gaNARHA06gqNBl8eR2ggER4OO4GjQERwNOoKjQZfHkdoIBEeDjuBo0BEcDTqCo0GXZ/WuP8Ulw/uLBQzPu18vfHmBI7USgqNBR3A06AiOBh3B0aDLs3bXH97fPO3h4eXXxVqZjiO1EoKjQUdwNOgIjgYdwdGgy7N217flV9OKvkPEaRypWH+z96fsJ4KjOT1WIcHRnCYhwdGwbYKjYbv5T6sfpd5FanrM+uVHqd+H4GjQERwNOoKjQUdwNOjyrI7U4OZp/sV3BwiOBh3B0aAjOBp0BEeDLs/6XV8XhsYzqefz2244UneA4GjQERwNOoKjQUdwNOjyfNaud6RWQnA06AiOBh3B0aAjOBp0eRypjUBwNOgIjgYdwdGgIzgadHkcqY1AcDToCI4GHcHRoCM4GnR5HKmNQHA06AiOBh3B0aAjOBp0eRypjUBwNOgIjgYdwdGgIzgadHkcqY1AcDToCI4GHcHRoCM4GnR5HKmNQHA06AiOBh3B0aAjOBp0eRypjUBwNOgIjgYdwdGgIzgadHkcqY1AcDToCI4GHcHRoCM4GnR5HKmNQHA06AiOBh3B0aAjOBp0eRypjUBwNOgIjgYdwdGgIzgadHkcqY1AcDToCI4GHcHRoCM4GnR5HKmNQHA06AiOBh3B0aAjOBp0eRypjUBwNOgIjgYdwdGgIzgadHkcqY1AcDToCI4GHcHRoCM4GnR5HKmNQHA06AiOBh3B0aAjOBp0eRypjUBwNOgIjgYdwdGgIzgadHmSu/4UF5m3pVYvccX5Me7JcBrcmKHiSK2E4GjQERwNOoKjQUdwNOjy5Hb91VKrQv2Lb552LwiOBh3B0aAjOBp0BEeDLk9u17PUij/i/o67842Kzleiz3CkVkJwNOgIjgYdwdGgIzgadHmSj1LvllrBsa1i6F816jq+ff3v0R+JD4KjeYw1co+31/ExIMHR1NEeb6/jY7zURyUZqcFSq1uR4guTg+Bo0BEcDTqCo0FHcDTo8mR3ffkN93asS63KI9Wp/LJ7q/HqX81wpFZCcDToCI4GHcHRoCM4GnR5PmvXO1IrITgadARHg47gaNARHA26PI7URiA4GnQER4OO4GjQERwNujyO1EYgOBp0BEeDjuBo0BEcDbo8jtRGIDgadARHg47gaNARHA26PI7URiA4GnQER4OO4GjQERwNujyO1EYgOBp0BEeDjuBo0BEcDbo8jtRGIDgadARHg47gaNARHA26PI7URiA4GnQER4OO4GjQERwNujyO1EYgOBp0BEeDjuBo0BEcDbo8jtRGIDgadARHg47gaNARHA26PI7URiA4GnQER4OO4GjQERwNujyO1EYgOBp0BEeDjuBo0BEcDbo8jtQnmPoRCI4GHcHRoCM4GnTMUYMujyPlSC2DLo8j5Ugtgy6PI+VILYMujyPlSC2DLs/6XX84vu3aja4Or+Uvo4VXG4gU1mnQYZ0G3edCcDToCI4GHXPUoGOOGnR51u76wwtXoV/E6N1aLHCkVkJwNOgIjgYdc9SgY44adHnW7vrT8f3yq0K9Q98cR2olBEeDjuBo0DFHDTrmqEGXZ+2un908rXIcPkqd11xdrMn52g+s0yDEOg26z/0gOBp0BEeDjjlq0DFHzWO9G1v6v8cP3Dztet3xbDFWxY9SKyE4GnQER4OOOWrQMUcNujyrd/0+MlUTFXe6Osbz9Fc/l/p9CI4GHcHRoGOOGnTMUYMuz2ftekdqJQRHg47gaNAxRw065qhBl8eRcqSWQZfHkXKklkGXx5FypJZBl8eRcqSWQZfHkXKklkGXx5FypJZBl8eRcqSWQZfHkXKklkGXx5FypJZBl8eRcqSWQZfnD4wU1i0w6bBOM8kcqWXQ5XGkHKll0OVxpBypZdDlcaQcqWXQ5dlQpLBugUmHdQtMOqzTTDJHahl0eRwpR2oZdHkcKUdqGXR5kru+roLpN097jUrc5eOeN0/DugUmHdYtMOmwTjPJHKll0OXJ7frxzdNKmvaDy84rjtRKmKIGHVPUoGOOGnTMUYMuT27Xz2+eVpiWysQ9ZMTN06bbHsWdrpJg3QKhOt2+19O/sfbnMbHsaALrNOg+F6aoKVMPHVPU1NESs2fPMEdNHS1N2eXJR6mr1Xsvlzm6z52usG6BSYd1C0w6rNNMMj9KLYMuTzJSs5unPb+d3xQhODhSvw9T1KBjihp0zFGDjjlq0OXJ7vp6e9B4YIqbp73WX3fx/LyW73TzNKxbYNJh3QKTDus0k8yRWgZdng/s+hSO1EqYogYdU9SgY44adMxRgy6PI+VILYMujyPlSC2DLo8j5Ugtgy6PI+VILYMujyPlSC2DLo8j5Ugtgy6PI+VILYMujyPlSC2DLo8j5Ugtgy6PI+VILYMujyPlSC2DLo8j5Ugtgy6PI+VILYMujyPlSC2DLo8j5Ugtgy6PI+VILYMuz+pdr5ZfzXCkVsIUNeiYogYdc9SgY44adHnW7nq5/GqGI7USpqhBxxQ16JijBh1z1KDLs3bXy+VXMxyplTBFDTqmqEHHHDXomKMGXZ7Vj1LLy68a3Dyt3p8r+YF1CxRV+Q/rFphu5IV1GjaMdRp0n/vBFDXomKIGHXPUoGOOGnS5j/i0MlIHFl6J5VcdP0qthClq0DFFDTrmqEHHHDXo8qzf9XWBcV1+9XZefvX2cvVkypFaCVPUoGOKGnTMUYOOOWrQ5fnArk/hSK2EKWrQMUUNOuaoQcccNejyOFKO1DLo8jhSjtQy6PI4Uo7UMujyOFKO1DLo8jhSjtQy6PI4Uo7UMujyOFKO1DLo8jhSjtQy6PI4Uo7UMujyOFKO1DLo8jhSjtQy6PI4Uo7UMujyOFKO1DLo8jhSjtQy6PI4Uo7UMujyOFKO1DLo8mR3/eH4tjuvtCocXt9Y1lDKb0evkPltmKIGHVPUoGOOGnTMUYMuT3LXv0xXnB/rX2JNDOsZfKere8EUNeiYogYdc9SgY44adHlyu/50rA9QF+ti+PLkSN0JpqhBxxQ16JijBh1z1KDLk9v116v3LhfyvVz8RjwTi65YhJP9wLoF6mKq1KKruIkX1mnYMNZp0H3uB1PUxJ3JygdT1DAec9SgY46aaQVb+r/soitWf16sMb54wIolWF4h87swRQ06pqhBxxw16JijBl2e5K7fR6ZqomKpVS3UP37F51+7+PI9jtRKmKIGHVPUoGOOGnTMUYMuzwd2fQpHaiVMUYOOKWrQMUcNOuaoQZfHkXKklkGXx5FypJZBl8eRcqSWQZfHkXKklkGXx5FypJZBl8eRcqSWQZfHkXKklkGXx5FypJZBl8eRcqSWQZfHkXKklkGXx5FypJZBl8eRcqSWQZfHkXKklkGXx5FypJZBl8eRcqSWQZfHkXKklkGXx5FypJZBl2f1rn9/87Ty1e7yKvSGI7USpqhBxxQ16JijBh1z1KDLs3bXX9887d3ChoYjtRKmqEHHFDXomKMGHXPUoMuzdtdfL79SkVoN1i0w6bBugUmHdZpJ9g/WadB9LkxRg44patAxRw065qhBtwYykOT65mmXK/qMWcvVzdPUo5QxafrN00qW6l92O94rwRhjjDHGGGOMMcYYY7bEw8P/A9U1GgI5JWCJAAAAAElFTkSuQmCC;" vertex="1" parent="1">
          <mxGeometry x="953.9969616699219" y="78.34772644042971" width="300" height="211.62" as="geometry" />
        </mxCell>
        <mxCell id="3sAKrGf5FiUx43U5iRsO-6" value="" style="shape=image;verticalLabelPosition=bottom;labelBackgroundColor=default;verticalAlign=top;aspect=fixed;imageAspect=0;image=data:image/png,iVBORw0KGgoAAAANSUhEUgAAAQIAAAC4CAYAAAAIaeL3AAAV8UlEQVR4nO3dQWgbWYIG4D/LgtWdUymIQTETCDUFTeQwCEo5TOI0AbcCASEWAsKCZIUPIdMmTa/m2PjkQ2JCa+k2gRyGxksHewQNQYgORCswibTDgAtEiJRLuXIIKHUoUF26hXLyHky9uCzJkUqyXE7+Dxomkl699+pV/VX16pk5sbOzswMi+qT921E3gIiOHoOAiBgERMQgICIwCIgIDAIiAoOAiMAgICIwCIgIwL97KfTsxAlPlX3JRYxEvsQ7AiJiEBCRx0eDw5JOpyHLMpaXl1EoFPD8+XOYpgkAUFUViUQCiqL0LKvrOorFIgzDgG3bAABJkjAzM4Pr168jFAqNva56vY5OpwMAkGUZqqoimUyOZV8QTdIJL399eFhzBOl0GuFwGJ9//jkMw4AkSQgGgzAMAwAQCASwsrLSdVLXajWsrq6i0+kgEAhgenoaAFzl7ty5g2g0Ota6nDLtdtsVItls1tP+IToqvrojACBOqEQigfn5eQC7V+C7d++i0+mgXC6LzwHAsixxYqqqihs3boiTV9d1PHz4EKZp4tGjR64gGLWuTCaDeDwuvnMCQtM0VKtVXLp06RD2DtHh8OUcQSqVcp2AiqIgFosBAF69euX6bblcFlfnbDbruoIrioLbt28D2D3pa7XaWOqanZ11hQAARKNRXL58GQCwvb09dJ+JjpLv7ggA9HzOPn/+PCqVStfnzsnqnLz7KYoCWZZhGAZevHjRdVcwTF2vX78GANTrdSwtLXV932q1ALx/JCE6LnwZBF6cPn360OtwJgZt2xYTkkfVFqJx+miCYJLi8TgymcxRN4NobHw5R+DF27dv+37XbrcBAFNTU5NqDtGxcuyDwLkNf/nyZc/vdV13vdobxblz5wAAW1tbI22HyG+OfRDMzc0B2H0rkMvlXN85rw8BIBKJ9F0gNChVVREIBGDbNnK5HCzLcn1fq9WQy+Wg6/pI9RBN2rGfI1AUBalUCvl8HpqmYWFhoWtBUTgcxq1bt8ZSVzKZFHVpmgZZlgHsvjFwJhCvXLkycl1Ek3TsgwDYfQV46tQpPHv2DIZhuAJAVVXXOoFx1HXmzBlsbm72rOvChQtdryiJ/M7TEmMi+rgc+zkCIhodg4CIGARExCAgIjAIiAgMAiICg4CIwCAgIjAIiAgMAiICg4CIwCAgIjAIiAgMAiICg4CIwCAgIjAIiAgMAiICg4CIwCAgIjAIiAgMAiICg4CIwCAgIjAIiAgMAiICg4CIwCAgIjAIiAgMAiICg4Doo5JOp7GwsDB0OQbBGG1sbGBjY+Oom0GfuE6nM3SZfz+EdnySqtUqisUiAOCPf/wjLl26dMQtIhqcpyA4UfgPT5XtJB97KnccnDx5EoFAAADwhz/84YhbQzQc3hGMSTQaxU8//XTUzSDyhHMEROSvO4J0Og1ZlrG8vIxSqYSnT5/CNE0AQCQSwbVr1xCNRvuW++abb/DLL7+gUqkAAFKpFJLJpPidrusoFouo1+tiQkWWZaiq6vrd2toaSqUSIpEIvvvuu55t/dvf/gbTNPH111+L+YB0Oo1AINDzzsCp2zAM2LYNAJAkCTMzM7h+/TpCoZD4ba1Ww/379/tuq1AoIJ/P92xfrVbDkydPYBgGOp0OJElCLBZDJpPp2Y9hDLptr+NoWRbK5TI0TRO/lyQJsizjxo0brn3Uq65CoYDnz5+LsqqqIpFIQFGUkfvutU/AcGM/jnJe+CoIHLlcDpqmiYOg2Wyi0Wig0Wi4Trz9fvzxRxiGgXA4DABi5wG7B/Hq6qo4gKenp9Fut2EYhvgvm80CAP785z+jVCqh0WjAsqyuHV6r1WCaJgKBQFdbes3Y7q07EAhAlmUAgGEYqFQq2Nrawp07d8SB9Pvvv/fd1t5+7f9e1/WuPjabTZRKJUxNTWF+fr7n9gbhZdvDjKOu67h7927PfaRpGprNJr7//vuebWu321haWoJhGKIup1y9XsfKysrYTpphj81hx37Ucl75LggMwwAAJBIJcXBZloV79+7BNE1sbGz0DAKn3P67AKe8s1MzmQzi8bj4ztnhmqahWq3i0qVLiEajkCQJtm3jn//8Z9f2/vWvfwEAZmZmPtifvXWrquq6sum6jocPH8I0TTx69GjkQS0Wi+h0OojH4+IqbVkWfv31V7x7926i2x52HH/77Td89tlnSCaTrv3tjI9pmigUCl1jAUBcmffWtTdYyuXySCHotU9ex36Sx4zDl3MEqVTKNXChUAi3b98GsHs1rNVqPcvF4/GeB0q5XEan08Hs7KwrBIDdSb7Lly8DALa3t8XnsVgMAKBpWtf26vU6AODChQsf7ItTtyRJyGazriuToiiiX6Zp9u3XoPbePjpCoRAymczIjwZetj3MOEajUTx48KBr/KLRqAjcvXd4H6pLURQxhq9evRqoj4MYpk9ex36Sx4zDl0HQ62RWFEUchG/evOlZrt8B+fr1awC7J/DS0lLXf1tbWwDeJz4AXLx4UXym67r4vFarwbZtSJI00FoB5yB0Dspe/XJu+168ePHB7R3k3LlzAHbnEAqFwkjbGse2vY7jfsFg0FNd58+fH2j7wximT17HfpLHjMN3jwYHCQaDsG37wCtDL86z9IfKnj59WvxvRVEQDodhmiY0TRMTTsM8FvTb9mGZn58X7c3n8ygUCojFYpibmxt5wmyc2z5oHKvVKra3t12h3Gq1Rmr7JBzUJ69jP4ljxnGsgmBUe59vB3H58mXk83lomiZuB527h7m5uUNp46iy2SxqtRo2NzdRr9dRqVRQqVR6zp34aduWZYnJXpo8Xz4a9ONcGSaVlH/5y18A7D6L6bqOUqmETqeDcDg89FXw7du3fb9rt9sAgKmpKQAYeXlyNBpFNpvFysoKVFUFgLE9Koxj273G8eeffxZvfDKZDH744Qesr69jfX29a17Hjw46NocZ+3GU88KXQdDrwKpWq+K26+zZs0Ntz3m+da7mgwqFQohEIgB2J3CcSULnBBiEc2C8fPmy5/e6rrvee+/XazKo2WwOVHcoFBKvRL38Icqo2x5mHJ3Prl69ing8PtZ35OM0TJ+8jv2ox4wXvgyCfD7v+is+y7Lw+PHu3ynIsjz01VhVVQQCAdi2jVwuB8uyXN/XajXkcjnXpKDDmbCp1+siCIZ5LHB+a5omcrmc6zvnVRCwuyhlb7+ctRBPnjwRn1mWhVwuh0aj0bOuxcXFrgO1VCoBgPg7CK+8bNvLODr72OEsEvKLYfrkdey9lhuFL+cIZFlGsVhEtVpFMBhEs9kUCytu3rw59PYURUEymRTP+5qmiVnXVqsl0vzKlStdZePxOP7xj3+I30QikaGuVoqiIJVKiboXFhYwPT0N4P1binA4jFu3brnKXb16FWtra2g0GlhcXHTtB1VVe77WBCAm8pwFU86V46uvvhq4zf0Mu+1hxnF2dlYsAnL664yNM2nrB8P0yevYey03Cl8GwfLyMtbW1rC1tQXDMBAIBD64XPRDV7xkMokzZ85gc3NTrCQEdneoqqq4cOFC38UZsVhMLFvu90rnoHYkk0mcOnUKz54961l3r8UuznOxs5TVtm1EIhF8+eWXOHnyJDRN66rr22+/FUtSnTpkWe65fmJYXrY9zDj26m84HEYikcAXX3yB+/fvj9T+cRn22PQy9qOUA7zd/Z3Y2dnZGbrUIUmn0wCA9fX1I24JjeJjHMePsU97+XKOgIgmi0FARP6cI6DD49ziDqrfn0IfR59y3z/Ed3cEo77mIn/4GMfxY+yTw1eThUR0NHx3R0BEk8cgICIGARExCIgIDAIiAoOAiMAgICIwCIgIDAIiAoOAiMAgICIwCIgIDAIiAoOAiMAgICIwCIgIDAIiAoOAiMAgICIwCIgIDAIiAoOAiMAgICIwCIgIDAIiAoOAyLfS6TQWFhYmUheDgMjHOp3OROphEBCRt/9b9K/+9n+eKvvf7y96KvepW1tbQ6lUQiKRwPz8/FE3hz5CvCM4Rt69e3fUTaCPFIOAiLw9GhymWq2GJ0+ewDAMMVESiUQwMzODZDIpfnP//n0EAgH89NNPXdsoFArI5/OIRCL47rvvXN+l02nIsoxvvvkGv/zyCyqVCgAglUqJ7Q/yGwDQdR3FYhH1el20VZZlqKrq+t3+upeXl1EoFPD8+XOYpgkAUFUViUQCiqKI3zuPBI5SqST+LUkSHjx4MMyuddm/nyVJQiwWQyaTObDdpVIJT58+Fe2ORCK4du0aotGoq4xlWSiXy9A0TfxWkiTIsowbN24gFAqNvH9G4aVPwPsxNwwDtm2Lfs3MzOD69es9+zVKuUnxVRA4JzCwu5Omp6fRarXQaDTQaDTEyfX7778D6D+j6uzog2Zcf/zxRxiGgXA47Coz6G9qtRpWV1fFSTQ9PY12uw3DMMR/2Wy2a5vtdhtLS0swDEOcGIZhQNM01Ot1rKysiIPC+b7VasG2bUiShGAwKL7zStf1rrY3m02USiVMTU31nYfI5XLQNE20q9lsirH5+uuvcenSJbH9u3fvotPpIBAIQJZlABD9bDab+P7773vWMcz+GYdB+wS4x3x/vyqVCra2tnDnzp2uAPFabpJ8EwS6rqNQKABA16SYc/UaF8MwAHRf4Qf9jWVZYmAzmQzi8birraurq9A0DdVq1XUgARBXnb193HvilMtl8XkymUQymRR3Bv2u2MMqFovodDqIx+Nie5Zl4ddff+07D+Hsj73ttiwL9+7dg2ma2NjYEH397bff8Nlnn4n27983pmmiUCj03PfD7J9RDdOnvWOuqqrrrkbXdTx8+BCmaeLRo0euE9pruUnzzRyBpmnodDqQZblroKPRaNct/qji8XjfEPjQb8rlMjqdDmZnZ10h4LT18uXLAIDt7e2e202lUq4+KoqCWCwGAHj16tVQ/fBi762pIxQKIZPJHBg0+9sdCoVw+/Ztsc1arQZgdx88ePCga99Fo1HMzMy42jBIPYe5fwbtkzPmkiQhm8267koURRFlTNMUZUYpN2m+uSNwBti5bTpsg1xZ+/3m9evXAIB6vY6lpaWu71utFoD3V5z9eoXL+fPnxVzEYTt37hwMwxB3YB8KREev3ymKAkmSYNs23rx588GrmvNoM2w9h7V/Bu2Tc3w6gdSrjPMY8+LFC7EfvJabNN8EgeNPf/rTUTfhg5y5B9u2D7yynT59elJNGsr8/DxM04Smacjn8ygUCojFYpibm/M0GRcMBnvui2q1iu3tbVcgOiHpd/365HVM/XosOHwXBMfJ3mfs4yabzaJWq2FzcxP1eh2VSgWVSuXAeZNBWZYlJlrpePDNHIGj33P1Xvsn4MibaDSKbDaLlZUVqKoKAOJxYRjOVd656v3888/ibUsmk8EPP/yA9fV1rK+vd82p+NX+Pjnevn3bt0y73QYATE1NdX3ntdyk+CYInB0+7FWk1wRLs9kcS5v6OXfuHABga2vrUOuZlFAoJF51HvTKtVdIVKtVcft89uxZAO8nAq9evYp4PH7k78gPMmifnOPz5cuXPbej67przYPDa7lJ800QzM3NAdgNgo2NDdd3uq4jl8vBsizxmfNuf+9rRcuykMvl0Gg0DrWtqqoiEAjAtu2udgG74ZTL5aDr+ljr7XcwDWtxcbHrBHAWKgUCgb7l8vm8a2wsy8Ljx48B7E7y7p9fqNfrrn87i4T8ZNA+OcenaZrI5XKubTivAYHdxUh794PXcpPmmzkCRVEwOzuLSqWCYrGIarWKYDCIdrstEvPKlSvi6nL16lWsra2h0WhgcXERwWAQzWZTvK/VNO1Q25pMJpHP56FpGjRNE287nMU/TnvH4eLFiyiVSjBNU/S11WqNtLLQmSR0FkI5+/irr77qW0aWZdfYOPs7EAjg5s2b4nezs7NiEdDe9tq2jXA4LOryg0H7pCgKUqmUGPOFhQVMT08DeH8XGw6HcevWLdf2vZabNN8EAQD89a9/hSzLqFQqYilmIBAQS4z3vlpxnjWdpaG2bSMSieDLL7/EyZMnoWla36vbQVe9QX+TTCZx5swZbG5uipWEwO6gqqqKCxcujO1VkKIoyGQyKBQKYiZ7lGftb7/9Vix3ddoty3LPdRF7LS8vY21tDVtbWzAMA4FAoOfS315jEw6HkUgk8MUXX+D+/fue2z5ug/YJ2B3zU6dO4dmzZz3HvN9CJ6/lgMGO1XE4sbOzszORmujYSqfTAID19fUjbsn4fIx9GoVv5giI6OgwCIjIX3MENBzn9nZQ/f5s+7j61Ps/TrwjoIFMatJqkj7GPnnFyUIi4h0BETEIiAgMAiICg4CIwCAgIjAIiAgMAiICg4CIwCAgIjAIiAgMAiICg4CIwCAgIjAIiAgMAiICg4CIwCAgIjAIiAgMAiICg4CIwCAgIjAIiAgMAiICg4CIwCAgIvgsCNLpNBYWFo66GYLf2kN0WHwVBADQ6XSOugkufmsP0WHwXRAQ0eR5+r9F/6/o/3iq7L9r/+mp3GFYW1tDqVRCIpHA/Pz8UTeH6Eh98ncE7969O+omEB25Tz4IiMjjo8EklEolPH36FKZpAgAikQiuXbuGaDTa8/e6rqNYLMIwDNi2DQCQJAkzMzO4fv06QqEQgPePBHvrcf4tSRIePHgwUHtUVUUikYCiKOPpMNER8mUQ5HI5aJoGSZIgyzKazSYajQYMw8CdO3e6wqBWq2F1dRWdTgeBQACyLAMADMNApVLB1taWKOdss9VqwbZtSJKEYDAIYDcIBmmPYRjQNA31eh0rKysiZIiOK18GgaZprkk8y7Jw7949mKaJv//9766rtmVZIgRUVcWNGzfEianrOh4+fAjTNPHo0SNEo1Ekk0kkk0lxZxCLxZDJZIZqj67ruHv3LjqdDsrlMicb6djz5RxBKpVynVyhUAi3b98GANi2jVqtJr4rl8vodDqQJAnZbNZ1dVYURZQzTdNVbpT2KIqCWCwGAHj16pWnbRL5iS+DIJlMdn2mKIq4dX/z5o343DkRnROzVznnUeHFixdja8/58+c9bYvIj3wZBP04z/LOZOBep0+fnnRziD4axyoIiOhwHKsgaLVaAHpf/d++fdu3XLvdBgBMTU0dTsOIjjlfBkGhUOj6rFqtikeCs2fPis+dUHj58mXPbem67nr3T0TdfBkE+XweGxsb4t+WZeHx48cAAFmWXYt45ubmAOy+Fcjlcq7tOK8Pgd0FSb0W//QLEKJPie/WEYTDYQBAsVhEtVpFMBhEs9kUi4Vu3rzp+r2iKEilUsjn89A0DQsLC5iengawu6DI2eatW7dc5S5evIhSqQTTNLG4uIhgMIhWq9V3ZSHRx8xTEBzmXxF+/vnnWF5extraGra2tmAYBgKBwIFLepPJJE6dOoVnz57BMAxXAKiq2nPBj6IoyGQyKBQKsG0btm0jHo8fWr+I/OzEzs7OzlE3goiOli/nCIhoshgERMQgICIGARGBQUBEYBAQERgERAQGARGBQUBEYBAQERgERATg/wEMwvMqJ1x7KAAAAABJRU5ErkJggg==;" vertex="1" parent="1">
          <mxGeometry x="1254" y="125.99999999999999" width="170" height="121.24" as="geometry" />
        </mxCell>
        <mxCell id="3sAKrGf5FiUx43U5iRsO-7" value="" style="shape=image;verticalLabelPosition=bottom;labelBackgroundColor=default;verticalAlign=top;aspect=fixed;imageAspect=0;image=data:image/png,iVBORw0KGgoAAAANSUhEUgAAAlMAAAGkCAMAAAFV52BwAAAAAXNSR0IArs4c6QAAAARnQU1BAACxjwv8YQUAAABpUExURf////n5+WxsbFlZWcXFxY2Njenp6WRkZKurq7+/v6Ojo3l5efj4+Pz8/IuLi2BgYPHx8VxcXNvb29fX13h4eAAAAHAwoIqKigCwUNnZ2URyxMAAAHp6esLCwvX19WhoaDg4OCAgIAAAAGcukPcAAAAjdFJOU/////////////////////////////////////////////8AZimDlgAAAAlwSFlzAAAXEQAAFxEByibzPwAAHBhJREFUeF7t3e1S3Mi2hGEimgiMfxGNPewY/+Hc/00eLa2XrqZ6ka5qtzzCzie8/aFJqavWzmEAC3H3d7i/e+F3Zulw98jvft03fh32v0X+7p9F/u5aN7rWj0Ve69+Fr/UzP7vWF34d8bNrHZe2jvrZtWb4WnN+57Uel1aM+p3rmrGTa11kp6+1Zlc3uladnbnWz7I/++f38dPx+Bw/InuM7DGyx8gez8U/f67++XqR9yK7lz2e87V+/s+f7l753a9f68vZf9N+9VrnfK3Pe61vZ/9N+9VrvU7899H+ZN/59QZ8qXE3v9RNPl5/W9X4B1Sr9Q3Nqr2huXKDN7lUvPWr3/z5Ur3feKmJVv3sUhN8qXG+1LhdXCqSRNPspSKZb3Bvc6lI/vsrlzolr77U8p7t+nF5+8D77FL5kXdaL1V+ZL7Bqk58qd93qfYB+Z5WdcaX+tsvdbu/Z7M/wMxfjP0+x+Vd9+Kz1f+Fi38Bd8GrGudVjdv9quI/X4en/P021v+2Lvjjav2v7II/pt86Kxa121Wt74ws/rNVre/3BK/qp1iTVzWANV27qvW9mPV+x/UD/fsb/cSafvw45iccFs/rJxXCcf3MQojwif8f9Kp+hjV5VQNY07WrenqNWzhujjVdu6rl48HjYfKv4wawJvdqAGvyqk4XfX/Vc6xps1VxzbjqCdf87avimmcXzU/xrbZf1Xpb/eVdPFzzv1rVa3xAuLtVfYBrelVelVf1hvQlTr92VetfdFy+g8U1PSuvyqt6Q/oSp3tV268qPlOU78h8P8c1f3z/zjX/97/vXPPff79zzX/+IX2J088v8P10ge+nC5DGugwzs48c7u4e+O1uPMWq1nf6dvU27HB3yPtu9vmW1asa51WN86rGeVXjvKpxXtXPPXJX7J5WFU8ZeVn/Im6rVfHRYHyUesJHg+Kj3G98WdW+VvXGq2JNu1gVn2UY+uzJm9uuis99XP05nTdeFWvyqlYsyqsawKK8qgEs6g9b1WGT9xlY1JWrWj9TtPr+0U2W1/z0zKJ+PK+PaFqdbszML/lcRf6EhYRlVIf1s2ruFWvyqlYsyqsawKK8qgEsyqsawKK8qgEs6s9aVbzLsMHnZFjUlauK92Se1i8x2duq8kZy94o1eVUrFuVVDWBRXtXpqvyxwKL+slVxzfNPAXtV/NrjmsuquOZHt+W9w6JuuyqueX5Vr2r9IpP1K2b3tKr1ef/5ORmewL3+4Jo/fjyfvgT3eM81P/oS3Hc4/drPFN0dXx8v3+vjmv/d/4NvvCpO96pWnO5VeVX8uuKaXlXNq+L0z7aq5V2Gl/UrZve0qvXvvNYnvu1uVSv3itO9qhWne1VeFb+uuKZXVfOqON2rWnH6H7aqb3cP+/xM0XorOV9Hm7jm3JfgnuP0qa8BXheE4ys3uJuZmdk+PNw95qPun/b5LP79iG9gm58qat/i/Rvv7vzF3j579s4yoXVIZ//w3buEf6fREXhUHtU4j2qYRzXMoxrmUQ3zqIZ5VMM8qmEe1TCPaphHNcyjGlaO4MvZl8HBoypH8MTnq17OpvWdG7k/C/66seF4j7+CbDheKNuyftOZw93T2fee+WytYkANx3sMqOF4YXQEHtVfNSr+5r9ZjjGgZj279AeMihsimjjIgJrlGANqlmMMqImTax5VJ06ueVSdOLnmUXXi5JpH1YmTax5VJ06ueVSdOLnmUXXi5JpH1YmTax5VJ06ulSN4uHuMO3o/ySdhGFATBxlQsxxjQM1yjAE1cXKtGsHbTUOHz/GZBQbUxEEG1CzHGFCzHGNATZxcK0fwdtMQ37E8eFTDI/CoPKpenFzzqDpxcs2j6sTJNY+qEyfXPKpOnFzzqDpxcs2j6sTJNY+qEyfXPKpOnFzzqDpxcs2j6sTJNY+qEyfXyhG8fWbh4fSJBY+qHsHp81XtczDcNNQePbmjHwyoeT6252GeLKtnQM1yjAE16z4L9/VNQ693j+sjF85Hxa87xICaOMiAmuUYA2qWYwyoiZNroyPwqDyqXpxc86g6cXLNo+rEyTWPqhMn1zyqTpxc+49Hxfoajs9gQE0cZEDNcowBNcsxXraJk2sbjYr1NRzvsb6G4zMYUBMHedlmOcaAmuUYL9vEyTWPqhMn137jqFhfsxxjfc169hwG1MRBXrZZjvGyzXKMl23i5Nqvj4r1NXGQ9TXLMdbXLMdYXxMnT+JlmzjIyzbLMV62WY7xsk2cXPOoOnFyrRzB0+E1fvk2dCcM62viIOtrlmOsr1mOsb4mTp7EyzZxkJdtlmO8bLMc42WbOLlWjeDp8e3eKo/qTDkqvh5wwb1DHtXi4xG851F5VL04ueZRdeLkmkfViZNrHlUnTq55VJ04ueZRdeLkmkfViZNrHlUnTq55VJ04ueZRdeLkmkfViZNrHlUnTq6VIzh9OdKXp/WXhUdVjqA9Gfvs81XcO3OJ9TXLsct7dp6fn1lfswRZX7Necg4v2yyvdeubhu6X/5VtWW8aej0blFu1+HgE73lUHlUvTq55VJ04ueZRdeLkmkfViZNrHlUnTq55VJ04ueZRdeLkmkfViZNrHlUnTq55VJ04ueZRdeLkWjkCbhq6e2nfQdSjKkdwumno6FGdKUf1dtPQfRuVmZmZmZmZmZndxtOXt3tfHvIX+8Ayn8fj+rv2fCGrLIWKW9DeDeq7MYlzS6dyUmf3n338SeK/RTWBpUprm77mv4IrT6qcwOFwjO8HcVYpT2p4Ap6UJzXKkxrlSY3ypEZ5UqM8qVGe1ChPapQnNcqTGuVJjfKkRnlSozypUZ7UKE9qlCc1ypMa5UmN8qRGeVKjPKlRntQoT2pUNYG3u4L8d8jnqgnEXUH3d3f3p2dSLTypagLcFfTycjg9GfyzTYqvgmw4foEvg2w4fumDTsUXjb6cbjhbfPz8rl1iPg3HLzCfhuOXqklxV9Dj093XgYfC7RLzaTh+gfk0HL9UToC7gh4O6/1mK09qdAKelCfV4fglT6rD8Ut/06R4WEKzHGM+TQRLnlQngqU/YFI8gKNZjjGfJoLMp1mOMZ8mgiVPqhPBkifViWDJk+pEsORJdSJY8qQ6ESx5Up0IljypTgRLnlQngiVPqhPBkifViWDJk+pEsORJdSJY8qQ6ESx5Up0IljypTgRLnlQngiVPqhPBkifViWDJk+pEsFRNgLuCjmeP4PCkyglwV5An9U41Ae4KOsbtCW88qQ86xaPkl99hv3cFPTOf5nhfflO/6rv63TOfZv0GftVP1aTenhX0blL8ukPMp1mOMZ8mgsynWY4xnyaCpXIC8a/d/f3ybx9/XnhSoxPwpDypTgRLnlQngiVPqhPBkifViWDJk+pEsORJdSJY8qQ6ESx5Up0IljypTgRLnlQngiVPqhPBkifViWDJk+pEsORJdSJY8qQ6ESx5Up0IljypTgRLnlQngiVPqhPBkifViWDJk+pEsORJdSJY8qQ6ESx5Up0IlsoJPBzytoSXT/FcF+bTLMeYTxNB5tMsx5hPE8FSNYGvy4zWx5Q8cnvCwpOqJvB2r8vh7UaOhSdVTSDun1omdXw6n9Tx+Py8/G+HP5hP8/x8eVdQLJ75NOVdQR/5oFPxOKXD4ZW3Vwt3qprAMe7zfIwh+d++ZnQCnpQn1YlgyZPqRLDkSXUiWPKkOhEseVKdCJY8qU4ES55UJ4IlT6oTwZIn1YlgyZPqRLDkSXUiWPqPJ8XyGo7PYD7Ncoz5NBFkPs1yjJdtIljypDoRLHlSnQiWtpkUy2s4foHlNRyfwXya5Rgv20SQ+TTLMV62iWDJk+pEsORJdSJY8qQ6ESz9vkmxuiaCLK+Jg5OYT7Mc42WbCPK6zXKMl20iWPKkOhEs/fqkWF6zHGN5zXKM1TVxMstr4uAkXrZZjvGyTQR53WY5xss2ESx5Up0IljypTgRLnlQngqVyAtwVdHht3xnLk6omcLoraH24UvKkqgmcnoBz/LL+OXhS1QS4Kyh/h+/vbsQ5/8HymuUYy2uO5T05M9/A6yPP1QIuv4PY8/Pxntdtxu8Kupd3BS34l3DhTlUTWO8Kun9cBua3U83HE3jPk/KkOhEseVKdCJY8qU4ES55UJ4IlT6oTwZIn1YlgyZPqRLDkSXUiWPKkOhEseVKdCJY8qU4ES55UJ4IlT6oTwZIn1YlgyZPqRLDkSXUiWPKkOhEseVKdCJY8qU4ES55UJ4IlT6oTwZIn1YlgyZPqRLDkSXUiWCon8HZXUPsrZE+qnIDvCqpUEzjdFeRJnakmsMwnJ9VudfnwO4gVN+VUj+pZkqyuidNZXhMHJyyvNXpX0PMzr9tMPCvoXt4VtD4EB+5UNQHuCrpvd+R5UmoC73lSnlQngiVPqhPBkifViWDJk+pEsORJdSJY8qQ6ESx5Up0IljypTgRLnlQngiVPqhPBkifViWDJk+pEsORJdSJY8qQ6ESx5Up0IljypTgRLnlQngiVPqhPBkifViWDJk+pEsORJdSJY8qQ6ESx5Up0IljypTgRL5QTevoPY6/rzypOqJsBdQU9ffP/UmWoCp7uCPKkz1QROdwWdT+pDLK9ZjrG8ZjnG6po4meU1cXASL9ssx3jZJoK8brMc42WbCNaYxLnTs4LOJmUV7grypMzMzMzMzMzMzMzMzMzM7MzD4XC4P/v94oU/ml3h67f4+WX9GV99q4L9gqd8E3U8vaW6u3s85HcWM7vKfZaJX8KRO2Xf45Y1+7vRBu3psD6qq71t4kBv8HL2JxstwX10aK3U4/oG6qF+/9ydsluXwJ0yd8puzp2yW3On7NbcKbs1d8puzZ2yW3On7NbcKbs1d8puzZ2yW3On7NbcKbs1d8puzZ2yW3On7NbcKbs1d8puzZ2yW3On7NbcKbs1d8puzZ2yW3On7NbcKbu18RLE84HaIxKe4llBl1/e7k7ZcAnePyvoWD8twZ2yxWAJjg/rm6i3ZwW9ew7VOXfqc+GbygkEZwyW4P2zgp4e1ue7PFw26/v3o22Hb0AoEBxFcQSCMwY71T0rKN9OFU8189upTVEcgeAoiiMQnDFagvfPCnqKR3muhzru1KYojkBwFMURCM64cQncqU1RHIHgKIojEJzhTn0mFEcgOIriCARnuFOfCcURCI6iOALBGe7UZ0JxBIJ8M3ohcxRHyNwUd+ozoTgCQYojZI7iCJmb4k7twI+fIkhxBIIUR8gcxREyN8Wd2gGKIxCkOAJBiiNkjuIImZviTu0AxREIUhyBIMURMkdxhMxNcad2gOIIBCmOQJDiCJmjOELmprhTO0BxBIIURyBIcYTMURwhc1PcqR2gOAJBiiMQpDhC5iiOkLkp7tQOUByBIMURCFIcIXMUR8jcFHdqByiOQJDiCAQpjpA5iiNkboo7tQMURyBIcQSCFEfIHMURMjfFndoBiiMQpDgCQYojZI7iCJmb4k7tAMURCFIcgSDFETJHcYTMTXGndoDiCAQpjkCQ4giZozhC5qa4UztAcQSCFEcgSHGEzFEcIXNT3KkdoDgCQYojEKQ4QuYojpC5Ke7UDlAcgSDFEQhSHCFzFEfI3BR3agcojkCQ4ggEKY6QOYojZG6KO7UDFEcgSHEEghRHyBzFETI3xZ3aAYojEKQ4AkGKI2SO4giZm+JO7QDFEQhSHIEgxREyR3GEzE1xp3aA4ggEKY5AkOIImaM4QuamDJfg6eHwenpW0P1h+cPh8MQfG3fqGhRHIEhxBIIUR8gcxREyN2W0BF8f4uf2rKCLJyUkd+oaFEcgSHEEghRHyBzFETI3ZbAEx4f1gS5vzwq6d6duieIIBCmOQJDiCJmjOELmpgyW4P2zgtLXs8fmvVmfFXQfD4zxT+M/URzh+HyMHxRHiNRyTYoj5EtTHKFf68BPg53qnhWUiieb+e3UNSiOQJDiCAQpjpA5iiNkbspoCc6eFfR6f/cSb6Fe/D76jVAcgSDFEQhSHCFzFEfI3JQbl8CdugbFEQhSHIEgxREyR3GEzE1xp3aA4ggEKY5AkOIImaM4QuamuFM7QHEEghRHIEhxhMxRHCFzU9ypHaA4AkGKIxCkOELmKI6QuSnu1A5QHIEgxREIUhwhcxRHyNwUd2oHKI5AkOIIBCmOkDmKI2Ruiju1AxRHIEhxBIIUR8gcxREyN8Wd2gGKIxCkOAJBiiNkjuIImZviTu0AxREIUhyBIMURMkdxhMxNcad2gOIIBCmOQJDiCJmjOELmprhTO0BxBIIURyBIcYTMURwhc1PcqR2gOAJBiiMQpDhC5iiOkLkp7tQOUByBIMURCFIcIXMUR8jcFHdqByiOQJDiCAQpjpA5iiNkboo7tQMURyBIcQSCFEfIHMURMjfFndoBiiMQpDgCQYojZI7iCJmb4k7tAMURCFIcgSDFETJHcYTMTXGndoDiCAQpjkCQ4giZozhC5qa4UztAcQSCFEcgSHGEzFEcIXNT3KkdoDgCQYojEKQ4QuYojpC5Ke7UDlAcgSDFEQhSHCFzFEfI3BR3agcojkCQ4ggEKY6QOYojZG6KO7UDFEcgSHEEghRHyBzFETI3xZ3aAYojEKQ4AkGKI2SO4giZm+JO7QDFEQhSHIEgxREyR3GEzE1xp3aA4ggEKY5AkOIImaM4QuamjJbg+PAlvsC9PXXj8fDthd+ecaeuQXEEghRHIEhxhMxRHCFzUwZL8BSVOn8Gx9dvdy/u1I1QHIEgxREIUhwhcxRHyNyUwRJ0zwp6ij7VncoHxjzbBIojPMczeJ4HnhW0Xu9+4FlBy/9Jyw+KI2Ru/Mdi9O1UlolnmuVbLb+duhWKIxCkOAJBiiNkjuIImZsyWoJ81tS7J065U7dCcQSCFEcgSHGEzFEcIXNThktwPCzival4/tTKnboViiMQpDgCQYojZI7iCJmbcuMSuFPXoDgCQYojEKQ4QuYojpC5Ke7UDlAcgSDFEQhSHCFzFEfI3BR3agcojkCQ4ggEKY6QOYojZG6KO7UDFEcgSHEEghRHyBzFETI3xZ3aAYojEKQ4AkGKI2SO4giZm+JO7QDFEQhSHIEgxREyR3GEzE1xp3aA4ggEKY5AkOIImaM4QuamuFM7QHEEghRHIEhxhMxRHCFzU9ypHaA4AkGKIxCkOELmKI6QuSnu1A5QHIEgxREIUhwhcxRHyNwUd2oHKI5AkOIIBCmOkDmKI2Ruiju1AxRHIEhxBIIUR8gcxREyN+Wv7hRjEwhujOIIBCmOQJDiCJljm0LmprhTEsGNURyBIMURCFIcIXNsU8jcFHdKIrgxiiMQpDgCQYojZI5tCpmb8pk6xdgEgqMYm0BwYxRHIMg2BYIUR8gc2xQyN8WdkghujOIIBNmmQJDiCJljm0LmprhTEsGNURyBINsUCFIcIXNsU8jclD+xU0xNyJw75U4xNiFzTE3InDvlTjE2IXNMTcicO/XHdoqxCQQZm5A5piZkzp1ypxibkDmmJmTOnXKnGJuQOaYmZM6dcqcYm5A5piZkzp36bzv1/llBX+N5CQ+Hp/zTGXfqGmxTIMg2BYLsU8gc2xQyN2WwBBfPClq8+wPcqWuwTYEg2xQIsk8hc2xTyNyUwRJ0zwq6+3Y4HNaWdeJZQevjaiYwNmGNHZ8Zm7DE7o/DD8q5Z2wCwS1/DE5gHSvbFCK1YJ9CvjjbFE7rHPmRRt9OvXtWEB4uH8Lht1PXYJsCQbYpEGSfQubYppC5KaMlKJ4V5E7dCtsUCLJNgSD7FDLHNoXMTRkuQXtW0PK2Kv7w+q5fcKeuwTYFgmxTIMg+hcyxTSFzU64pgeBOXYNtCgTZpkCQfQqZY5tC5qa4UxLBjbFNgSDbFAiyTyFzbFPI3BR3SiK4MbYpEGSbAkH2KWSObQqZm+JOSQQ3xjYFgmxTIMg+hcyxTSFzU9wpieDG2KZAkG0KBNmnkDm2KWRuijslEdwY2xQIsk2BIPsUMsc2hcxNcackghtjmwJBtikQZJ9C5timkLkp7pREcGNsUyDINgWC7FPIHNsUMjfFnZIIboxtCgTZpkCQfQqZY5tC5qa4UxLBjbFNgSDbFAiyTyFzbFPI3BR3SiK4MbYpEGSbAkH2KWSObQqZm+JOSQQ3xjYFgmxTIMg+hcyxTSFzU9wpieDG2KZAkG0KBNmnkDm2KWRuijslEdwY2xQIsk2BIPsUMsc2hcxNcackghtjmwJBtikQZJ9C5timkLkp7pREcGNsUyDINgWC7FPIHNsUMjfFnZIIboxtCgTZpkCQfQqZY5tC5qa4UxLBjbFNgSDbFAiyTyFzbFPI3BR3SiK4MbYpEGSbAkH2KWSObQqZm+JOSQQ3xjYFgmxTIMg+hcyxTSFzU9wpieDG2KZAkG0KBNmnkDm2KWRuijslEdwY2xQIsk2BIPsUMsc2hcxNcackghtjmwJBtikQZJ9C5timkLkp7pREcGNsUyDINgWC7FPIHNsUMjfFnZIIboxtCgTZpkCQfQqZY5tC5qaMlqB7VtBLfGHy5Ze2u1NXYZsCQbYpEGSfQubYppC5KYMlqJ8V5OdP3QbbFAiyTYEg+xQyxzaFzE0ZLEH/rKDFU/WwoHhWUPf8GP3jefRZQUuSsQkRHH9Qzg6eFZQLZpvCEoos2xTW633WZwV9LZ5o5rdT12GbAkG2KRBkn0Lm2KaQuSmjJeieFfT4yntWHXfqGmxTIMg2BYLsU8gc2xQyN2W4BO+eFfQSfzi8fr14h8qdugbbFAiyTYEg+xQyxzaFzE25pgSCO3UNtikQZJsCQfYpZI5tCpmb4k5JBDfGNgWCbFMgyD6FzLFNIXNT3CmJ4MbYpkCQbQoE2aeQObYpZG6KOyUR3BjbFAiyTYEg+xQyxzaFzE1xpySCG2ObAkG2KRBkn0Lm2KaQuSnulERwY2xTIMg2BYLsU8gc2xQyN8WdkghujG0KBNmmQJB9Cpljm0LmprhTEsGNsU2BINsUCLJPIXNsU8jcFHdKIrgxtikQZJsCQfYpZI5tCpmb4k5JBDfGNgWCbFMgyD6FzLFNIXNT3CmJ4MbYpkCQbQoE2aeQObYpZG6KOyUR3BjbFAiyTYEg+xQyxzaFzE1xpySCG2ObAkG2KRBkn0Lm2KaQuSnulERwY2xTIMg2BYLsU8gc2xQyN8WdkghujG0KBNmmQJB9Cpljm0LmprhTEsGNsU2BINsUCLJPIXNsU8jcFHdKIrgxtikQZJsCQfYpZI5tCpmb4k5JBDfGNgWCbFMgyD6FzLFNIXNT3CmJ4MbYpkCQbQoE2aeQObYpZG6KOyUR3BjbFAiyTYEg+xQyxzaFzE1xpySCG2ObAkG2KRBkn0Lm2KaQuSnulERwY2xTIMg2BYLsU8gc2xQyN8WdkghujG0KBNmmQJB9Cpljm0LmprhTEsGNsU2BINsUCLJPIXNsU8jcFHdKIrgxtikQZJsCQfYpZI5tCpmbMlqC988KWn53OHscR+NOXYNtCgTZpkCQfQqZY5tC5qYMluDyWUFnj+M4405dg20KBNmmQJB9Cpljm0LmpgyW4PJZQeePDWrcqWuwTYEg2xQIsk8hc2xTyNyU0bdT2aCzN07126nX72b/Rxt+ontW0EedMhv37llB6x8Oh4f8R2ZmZmZmZmZmZmZmf5e7u/8Hv9xQeaujHl0AAAAASUVORK5CYII=;" vertex="1" parent="1">
          <mxGeometry x="89.99525790127825" y="78.3436871892755" width="300" height="211.76" as="geometry" />
        </mxCell>
        <mxCell id="3sAKrGf5FiUx43U5iRsO-8" value="" style="shape=image;verticalLabelPosition=bottom;labelBackgroundColor=default;verticalAlign=top;aspect=fixed;imageAspect=0;image=data:image/png,iVBORw0KGgoAAAANSUhEUgAAAlMAAAGjCAMAAAFI4lDIAAAAAXNSR0IArs4c6QAAAARnQU1BAACxjwv8YQUAAABpUExURf////n5+WxsbFlZWcXFxenp6WRkZKurq9fX12BgYPHx8b+/v1xcXNvb26Ojo3l5efj4+Pz8/IuLi4qKinh4eAAAAI2NjXAwoACwUNnZ2URyxMAAAHp6esLCwvX19WhoaDg4OCAgIAAAAEHv/10AAAAjdFJOU/////////////////////////////////////////////8AZimDlgAAAAlwSFlzAAAXEQAAFxEByibzPwAAIBpJREFUeF7tnd1S40qwrB1hBxAmzA1MnB173bDf/yVPVWdabeRWqQrsQTD5DYufXjmt6lRia0TR3m2Zhz0/+TKP7f2f9v42/IK5/sdpn/0/p3125vH4fLO5TrvX7Fz/OW2u/3Wu52r87rkOu73l/s/pdDgZ8bvRXPg/nKzx671/v9lcD27cr/fLuM1cb+0x+jZz2UlMP+aszQV++Vz7Z39cfcowmgsPIZyrMa5rftzRXPxfF1zO5Vp89r1ztcdVfu58fq7r64k2l2tvtcavz+Xarcz1eLR3N5qrZXaDa2xsb66DBd/m6g8ET649ufbkWvwPMJpr8XHCtb/T+/448dW5Hk79Oe2rczV+91xvu9PNvN/v3Hvx99nvHu0s3ogbzMQ83YLvn6p9QzR64O8w1XPa98Vv03pVP3Uq86r/mzx651OdfKr+9Iv/8694tc9/P69XZf/8ybE+VZp/fSp7SpXtZ9anMq94ab2CT3XwqZ58qoNP5Q8YiUeGflSyXtVHmrTxjVO9t7cLPj+VX0Z+YCQlq1PNuM1Ui1LyV6eaHpC/PFW/ZvjyVJ3fOpV51b/z2zVB/87H/yD+/9s/2dcfGVy6mQVOfHWqiyuGr051gab6a1NVrhnEr+fQ3qf/HfANXH8H/FUWDv8vVeUPJg1+7fjDSoNfN35AVXt7ADw9+Gd//B/7N4c18aZCo91ZaFDT+Ate+TNB48Ir1sQnhgbVDVX1qaoe2s1tPIpup6r2Ly8+2W+nqktUFaG68QOqevBH0faZvCJUN1TVL6oKV8i7F3/354nP3jeANfF+QyO+Zli8/agzSKhu/ICqvA0Hz89bqqoVtLmqOgvDnPTyXwPTtPzyGtakqu5e1eV9htWqOOn/bssrTvqNVXHS/1TVkC1V5fcZEPc/J7toOL9x0v9O7YcIztP0pH+anvT5hH8N/3b+muF00Bn8RVUt3mfgpN9Tld9naIUZ26nqElVFqG78gKr8PgMfRdvXhJPKK36coaoI1Y3NV+VXyKfzfYbv5f+8BiHEFvAnwEKv7t/haAXNWvs2wLmq7VUmxA+E1zF2IdThdczyhdDdYVG/o6pX/CDgXrCoalUn+8dXq4s3km4Mi/qf09rtr1bMmcf98x284lX7Zy/77wSLUlUJWJSqSsCifldVz/e5PGZRn6vq5Bft5+t2eyT78MuHX3iHjQGM/kOE04FF/e+p/U6C8+HvtBoIro1v3gTOopT2BCxKVSVgUaoqAYv6dFUPz23PhxvDoj7v1YnNhjeFRX2+Kv+R182vRlmU0p6ARamqBCxKVSVgUb+rKrvqu/kln8GiPldVu0K2qlrzwA1bawdtNqX7DPYcaFXpsV1VzWBRqioBi/plVflmWpu8QiYnblRwC1jUZbNi2/bAuXgUPbS7DHhjFeQeTzjfkyvOujwti7pfVZzVpu1wVlU1g7OqqgSc9W9WZY+fb3bhF11fcda/WJV3Dqw9snPW2ilgUV+oyoj6GTjrX6wqA2dVVYtw1s9Oy7+tqlTVRzjrt1U1vurjrN9W1XRpevHbOCs/Ssv/Ps4n7zPYvyYObS+SGZz127waw1lVVQLOqqoScFZVNXHcPe9eh9einPVbqvK7tbsHXpB+uM/AWf879BsFg4YEiq/h3/7v6XP3GdovCQ2edTjrt3i1DGdVVQk4q6pKwFlV1SX7868PfoSzfptXs9ukhLN+W1XmFfe6uYSzfltVYzirqkrAWVVVAs6qqhJw1m+q6m33MHi0+t6q2hWyPYy2fgb+Lu130Qoip3cv6Q6/OSGEEEKIz/GGn+62f6YO/q0qJk52wecO2X/+U5PHdpnl8JLnH2UYmv3u2a9GH3aHR7v2e52u/Ra2wflHKK1eVqWRVWlkVZrfaBVvIHQ4fs2vtYr3VTocn0ODOhy/RlbN4fg1y6t/eG/XU8d9f+lHWTXELj791cw//MRZVg0xq+w61K3yD2CrVvHOb8fGaFDHxng3uGNjNKjjEw4prV5WpZFVaWRVGlmVRlalkVVpZNUVj9NdUL4jsmrOkTeMjXaxPl2xy6orTntzyjcse7MP/o7IqjSyKo2sSiOr0siqNLIqjawaYpeh/mPlD7+LI6uG2JWV3zDGZ+TPLXdquSE0qHPqv9U1YToa1LExGtRpM87x34JdtOr0aB49P9uV+oVV/Lg1aFDHxmhQx8ZoUMfGaFDHJxxSWr2sSiOr0siqNLIqjaxKI6uuOPcpHP221f598w2ONKhjYzSoY2M0qGNjNKjjEw4Zrf5ol55+MXU8fbiqklXXHHFv/bQ3/OvpNqisSiOr0siqNLIqjaxKI6vSyKo0smoIe0F3Lxeds7JqCDuM7YOsAsur3+9Pu2ffCkJWgdLqa1axxAkOX8ESJzhcgAZ1bIwH7dgYDerYGA/a8QmHyKo5PuEQWTXHJxwiq+b4hENk1RyfcIismuMTDhmunvss7HaHtk3TxNetYokTPsYSJ3ysBg3q2BgP2rExHrRjYzxoxyccMlr9eZ8FuwBt1+toXTBKPQvTS3yf8b/MEidcyBInfKwGDeqc+obcE6bjQTunw7S97MTlNrOXb+OehbbPgm+v9WpXoZ/eZ4ElTvgYS5zwMZY44WM1aFDHxnjQjo3xoB0b40E7PuGQ0uplVZplMUuc8DGWOOFjLHHCx1jihI/V4EE7NsaDdmyMB+3YGA/a8QmHyKo5PuEQWTXHJxwiq+b4hENk1RyfcMjy6ve+KbV96C0LsmoM74K2ptAzsmrI+d46erKBrEojq9LIqjSyKo2sSiOr0siqNLLqCu6zYFdW51dhBbJqzrTPwiOvQdt7Q1ZdMe2zsH9N7rPAEid8jCVO+BhLnPAxljjhYzV40I6N8aAdG+NBOzbGg3Z8wiHLqx8gq9LIqjSyKo2sSiOr0siqIdxnwegXobJqiBmEG8b9JmjQs8ASJ/z1wFnixNNTfz3wM94OwBInLhsF1t9GR//PxnjQjo3xoB2bgQftzA9wflvZZ+HwfOh31pWqArIqjaxKI6vSyKo0siqNrLqG+yy82oVVbp8FljjhYyxxwsdY4oSPscQJH6vBg3ZsjAft2BgP2rExHrTjEw4ZrX66C3ro2842ZNUc7rNgl6H+i1sX+ywIIYQQQgghhBBCLPOwb7cSjvt9276xjYkB/vNk++C3YD5u3i9m+I+TLVTth8lyKsKc8pueDyf/RaSLm59vf/5p6MIl/EUt+w5sv6+V6JT9Fxit/oBXgji+2gezqQXLkVNZ5FQWOZVFTmWRU1nkVBY5lUVOZfmVTrEpocPxK36tU2zf6HB8Dv3pcPwKOTWH41fIqTkcv0JOzeH4FXJqDsevWF497wrv99MvPcipIdwq9fImupwacW75vOxflFMjznvK2n+TWX/8lWB/CvSnY2Nsh+3YGP3ptL89YDFT7I01m6ZvwM1mio3DHRujPx0boz8dG6M/HZ9wxOLq2+a7e/vTN4iTU1nkVBY5lUVOZZFTWeRUFjmVRU5lkVNZ5FQWOZVFTmWRU1nk1Jyjd5qxxfOyz1NOzfHuxYOcmjFavQXKb3me/NVJ2zvS7nn6zkxbe0d/Ok9fvOc5Os5CprgLQGvx3H6fJ/3p2Bj96dgY/enYGP3p+IQjRqt/nfqF5VRnuHr/jjsc2l677R2RU1nkVBY5lUVOZZFTWeRUFjmVRU5lkVNZ5FQWOZVFTmWRU2Owt2duW89vhv50bIz+dGyM/nRsjP50fMIRi6v/SR2x9KdjY/SnY2P0p2Nj9KfjE45YWv3Rt4m1j3LqzNLqzx2xu91Le80Cx+8O+4sDbA760xm8VsLw1QpsjP502owz/P7wYqbYEWv03mF+3Bz0p2Nj9KdjY/SnY2P0p+MTjlhc/Ts6Yp9TLwP8zdCfjo3Rn46N0Z+OjdGfjk84orJ6OZVFTmWRU1nkVBY5lUVOZZFTWeRUFjmVRU5lkVNZ5FQWOXXFwx73pF7fdof33kAlp+a8mEftVsvzqzpiJ0ar9z5PD5Xv5imnzoxWb99u7tTpiHbP/t230ZvDX3gt2+tX0l3YL+Gw1Dvs2+juDW8hnm56KlNz2uv9Pvv336unSo/ojcrq5VQWOZVFTmWRU1nkVBY5lUVOZZFTWeRUFjmVRU5lkVNZ5NSQB9xN8PueZ+TUkHP34pucAkur95ue7lS7Q0V+zj3PbEfs6J7noe2PcP225NR53+HHS6f4cXPQn46N0Z+OjdGfjo3Rn45POGJx9W/njRLkFFhcfdsoAd9/Z+RUlvs4xQI7HC9Afzo2Rn86NkZ/OjbGg3Z8whH3c4oFdjg+hwV2OF6A/nRsjAft2Bj96dgYD9rxCUfIqTk+4Qg5NccnHCGn5viEI+TUHJ9whJya4xOOkFNzfMIRcmqOTzhCTs3xCUfIqTk+4Qg5NccnHDFc/R4dsb5Vwuc7Yllgh+NzWGCH4wXoT8fGeNCOjdGfjo3xoB2fcMRo9Y9TH97+C32eLLBjYyywY2MssNP+dgn607ExHrRjYzxox8Z40I5POGK0+nNHrDfnyakzo9Xbtxucaven8M4p7Zcw2M72CxsWxNCfztMX7g7P7wrjbXE3Xe+INdpdvE92xLLAjo2xwI6NscBO+9sl6E/HxnjQjo3xoB0b40E7PuGI0epbR+zh2QzzjvSLTPFjDhbYsTEW2LExFthpf7sE/enYGA/asTEetGNjPGjHJxxRWb2cyiKnssipLMtaFtixMRbYsTEW2LExFtjxCWvwoB0b40E7NsaDdmyMB+34hCPk1ByfcIScmuMTjpBTc3zCEXJqjk84Qk7N8QlHyKk5PuEIOTXHJxwhp+b4hCPk1ByfcMTy6rGb7lvq9WZYYMfGWGDHxlhgx8ZYYMcnrMGDdmyMB+3YGA/asTEetOMTjlhcPXfT3e0O011POTXi3Od5cXtKTg3pu+k++E4ADe8dHr+xwI6NssDOqfBiZ3nGd4dvvl9CajddNMYaytSQtpuuvdu99kzx4zUssGNjLLBjYyywY2MssOMT1uBBOzbGg3ZsjAft2BgP2vEJRyyv/ho5lUVOZZFTWeRUFjmVRU5lkVNZ5FQWOZVFTmWRU1nkVBY5NefonWbeGHt68009J+TUnN69mO0dZoEdG2OBHRtjgR0bY4Edn7AGD9qxMR60Y2M8aMfGeNCOTzhitHoLFDpiLVwnf7V7srxfAgvsmJIFdp6eBvc8D9f3PDlnAR6085WO2Fkr7PS2kCk4xdvD7b2hTM15ZdOw7g5fMly9f8cdDq/7vT1O6ed9ZHn118ipLHIqi5zKIqeyyKksciqLnMoip7LIqSxyKoucyiKnxqAj9vV9etl2OTVm6oh9nO4Py6kRvSNWToGl1feO2Iv7U6el28MssGNjLLCTvTv84Z7s2tvC4f/SfgnO1BHbjVKmxrAj9sIoOZVGTmWRU1nkVBY5lUVOZZFTWeRUFjmVRU5lkVNZ5FQWOZVFTl3B3XR377vkbrossGNjLLBjYyywY2MssOMT1uBBOzbGg3ZsjAft2BgP2vEJR4xWz910j4/mkTpiz4xWf9nnKafOjFbvBl10xE7ffe9//mnowiVTPzo8mnbTFXO4m25z6nI3XSGEEEIIIYQQQgghhBBCCCGEEP8ux/3jbve8P++5P3126tucCVHiwSLlUUKCnqf+BGVKfJIDHpdObGV8ffXt4Py3uA/28WJLRiGyHM+ZwlPea9uP8fyoZY9i7etL2Lsm/kkYghVe29YSeO9p8i5G7yduHEeZ4ifinyN97k/n57hnf/47+lf+mNWe+5i0S5Spf5d7nXtl6t9FmRK3RpkSt0aZErdGmRK3RpkSt0aZ+sfh76YHUJhHmfphcB+DAAqTMDgBFOZRpn4YDE4AhUkYnAAK8yhTPwwGJ4DCJAxOAIV5lKkfBoMTQGESBieAwjzK1A+DwQmgMAmDE0BhHmXqh8HgBFCYhMEJoDBP+dyfvOPzwN683e75nU3EM5SpO8HgBFCYhMEJoDBP9dwf503EC9vBKVN3gsEJoDAJgxNAYZ7quWcTMT8cexPxjD/+0j3i9jA4AdBx780A6BicAOgKlB+n4ibiCT1OFeE+rQHQMTgB0DE4AdAxOAHQFShnatRE/HL9DKhMFWFwAqBjcAKgY3ACoGNwAqArUD/3rVu4NRH75bk3EY8u05WpIgxOAHQMTgB0DE4AdAxOAHQF7nXulakiDE4AdAxOAHQMTgB0DE4AdAWUqY3A4ARAx+AEQMfgBEDH4ARAV0CZ2ggMTgB0DE4AdAxOAHQMTgB0BZSpjcDgBEDH4ARAx+AEQMfgBEBXQJnaCAxOAHQMTgB0DE4AdAxOAHQFlKmNwOAEQMfgBEDH4ARAx+AEQFdAmdoIDE4AdAxOAHQMTgB0DE4AdAWUqY3A4ARAx+AEQMfgBEDH4ARAV0CZ2ggMTgB0DE4AdAxOAHQMTgB0BZSpjcDgBEDH4ARAx+AEQMfgBEBXQJnaCAxOAHQMTgB0DE4AdAxOAHQFlKmNwOAEQMfgBEDH4ARAx+AEQFcgfe6PD/t3Nri0nyO/7/fejdA/+4gyVYTBCYCOwQmAjsEJgI7BCYCuQPbcvzz4+3OLS98ZdmmPWGWqCIMTAB2DEwAdgxMAHYMTAF2B5Lk/PXxoxTtMSeqffUSZKsLgBEDH4ARAx+AEQMfgBEBXIHnuP7YMg5fpFx36ZxPn3uEDPhj6LPjs6cTgBDydnuyNwQkwlcHgBKAEBieApS7W3rj8LJmpo2+5P28SPj8TXn52Ro9TRRicAOgYnADoGJwA6BicAOgKZM/9Aa/jYJHy9s5Xf1x69W2H+Zmu0b8KgxMAHYMTAB2DEwAdgxMAXYF7nXtlqgiDEwAdgxMAHYMTAB2DEwBdAWVqIzA4AdAxOAHQMTgB0DE4AdAVUKY2AoMTAB2DEwAdgxMAHYMTAF0BZWojMDgB0DE4AdAxOAHQMTgB0BVQpjYCgxMAHYMTAB2DEwAdgxMAXQFlaiMwOAHQMTgB0DE4AdAxOAHQFVCmNgKDEwAdgxMAHYMTAB2DEwBdAWVqIzA4AdAxOAHQMTgB0DE4AdAVUKY2AoMTAB2DEwAdgxMAHYMTAF0BZWojMDgB0DE4AdAxOAHQMTgB0BVQpjYCgxMAHYMTAB2DEwAdgxMAXQFlaiMwOAHQMTgB0DE4AdAxOAHQFVCmNgKDEwAdgxMAHYMTAB2DEwBdgfK5P3mDwrRH7OG6IwEoU0UYnADoGJwA6BicAOgYnADoClTP/WyP2KXWYWWqCoMTAB2DEwAdgxMAHYMTAF2B6rmfNXy2TfNGuVKmijA4AdAxOAHQMTgB0DE4AdAVKD9OIUznxnTw0HaK/YD3Dh+8J1Z/cn8YnIDWEpzYd9h09sbgBEDH4ARAl3izd+2klzP1cY9YMMwUPxE5GJwA6BicAOgYnADoGJwA6ArUz/3p/GznTcT+xft1opSpMgxOAHQMTgB0DE4AdAxOAHQF7nXulakiDE4AdAxOAHQMTgB0DE4AdAWUqY3A4ARAx+AEQMfgBEDH4ARAV0CZ2ggMTgB0DE4AdAxOAHQMTgB0BZSpjcDgBEDH4ARAx+AEQMfgBEBXQJnaCAxOAHQMTgB0DE4AdAxOAHQFlKmNwOAEQMfgBEDH4ARAx+AEQFdAmdoIDE4AdAxOAHQMTgB0DE4AdAWUqY3A4ARAx+AEQMfgBEDH4ARAV0CZ2ggMTgB0DE4AdAxOAHQMTgB0BZSpjcDgBEDH4ARAx+AEQMfgBEBXQJnaCAxOAHQMTgB0DE4AdAxOAHQFlKmNwOAEQMfgBEDH4ARAx+AEQFdAmdoIDE4AdAxOAHQMTgB0DE4AdAWy5/7k/Z1Ty7DxvH/zfoTTQvOwMlWEwQmAjsEJgI7BCYCOwQmArkDy3M9ahne7lze8Zrv2Hb4RDE4AdAxOAHQMTgB0DE4AdAWS537WMnz0PLVMLTUPtz1in05PIgmDE+B7vz6l9oh1GJyAQ2vKZHACoMu8kezj1IeWYTxqtUyB60ZPPU4VYXACoGNwAqBjcAKgY3ACoCuQPfeDlmFl6pYwOAHQMTgB0DE4AdAxOAHQFUif+w8tww1eTxlXO1krU2UYnADoGJwA6BicAOgYnADoCtzr3CtTRRicAOgYnADoGJwA6BicAOgKKFMbgcEJgI7BCYCOwQmAjsEJgK6AMrURGJwA6BicAOgYnADoGJwA6AooUxuBwQmAjsEJgI7BCYCOwQmAroAytREYnADoGJwA6BicAOgYnADoCihTG4HBCYCOwQmAjsEJgI7BCYCugDK1ERicAOgYnADoGJwA6BicAOgKKFMbgcEJgI7BCYCOwQmAjsEJgK6AMrURGJwA6BicAOgYnADoGJwA6AooUxuBwQmAjsEJgI7BCYCOwQmAroAytREYnADoGJwA6BicAOgYnADoCihTG4HBCYCOwQmAjsEJgI7BCYCuQP3cHx/e95evqX18HW1ApUwVYXACoGNwAqBjcAKgY3ACoCtQPffHFza9nFuGjw+Hi6aXCWWqCIMTAB2DEwAdgxMAHYMTAF2B6rk/PXxo+LSvT5eNVBPKVBEGJwA6BicAOgYnADoGJwC6AtVzzzCd94g9PNjj1ThT6CY9b4GqPyt/GJyAtgVrpne4TcjgBKDZl8EJaLI0Nmv5uc+33J9+2QHd6MbF9RXQ41QRBicAOgYnADoGJwA6BicAugLlc3/wULVIPZ+TpOe+G8DgBEDH4ARAx+AEQMfgBEBX4F7n/idlit4tQ91dYXACoGNwAqBjcAKg4xIDoCugTClTK0BX4Cdmit4tQ10WercMdXeFwQmAjksMgI7BCYCOSwyAroAypUytAF0BZUqZWgG6AsqUMrUCdAWUKWVqBegKKFPK1ArQFVCmlKkVoCugTClTK0BXQJlSplaAroAypUytAF0BZUqZWgG6Atlzf/J2hGmP2BdveHnw7WG/Y49YercMdVno3TLU3RUGJwA6LjEAOgYnADouMQC6Aslzf7VHrNG+OFyOXLCFTNG7Zaijd8tQd1cYnADouMQA6LjEAOi4xADoCiTP/dUesfs9mvPaPnmDXClTRRicAOi4xADouMQA6LjEAOgKZB+nPrYMg76L52g/T2w7jMbY2/6hd8tQR++WoY7eLUPdXf8wOAEwk0sMwHxcYsBdeod90mymBnvEHqck9c8m9DhVhMEJgI5LDICOSwyAjksMgK5A+ty31nN/jnu2x6q+M2wb/st7xNK7Zaijd8tQR++Woe6uMDgB0HGJAdBxiQHQcYkB0BW417lXpoowOAHQcYkB0HGJAdBxiQHQFVCmlKkVoCugTClTK0BXYEuZonfLUEfvlqGO3i1DHb1bhrq7wiUGQMclBkDHJQZAxyUGQFdAmVKmVoCugDKlTK0AXQFlSplaAboCypQytQJ0BZQpZWoF6AooU8rUCtAVUKaUqRWgK6BMKVMrQFdAmVKmVoCuQPncLzURz1CminCJAdBxiQHQcYkB0HGJAdAVqJ77xSbiGcpUES4xADouMQA6LjEAOi4xALoC1XO/2EQ8o/V5FqF3y7jIZqV3y7jucFpvdTSNv9G7Zai7z5sXa3CJAbb2zOLb6p/Wm1y5ei4xYKo08+aUH6eGTcQv/KSjx6kiXGIAdFxiAHRcYgB0XGIAdAWK5/7I9uEPTcTK1A3gEgOg4xIDoOMSA6DjEgOgK1A/961v+KKJ+H3UOqxMVeESA6DjEgOg4xIDoOMSA6Ar8Jlzn0GZKsIlBkDHJQZAxyUGQMclBkBXQJlSplaAroAypUytAF0BZUqZWgG6AsqUMrUCdAWUKWVqBegKKFPK1ArQFVCmlKkVoCugTClTK0BXQJlSplaAroAypUytAF0BZUqZWgG6Aulzf3x47y97fHy1L9o+Zoe9ffbur7T9EWWqCJcYAB2XGAAdlxgAHZcYAF2B7Ll/YYvLRXhevGX4lnvE0rtlqKN3y1BH75ahjt4tQ91d4RIDoOMSA6DjEgOg4xIDoCuQPPenh/YQNfWhOy97e3dSpm4DlxgAHZcYAB2XGAAdlxgAXYHkuWev8GV751v/zYaXy6gB7x32VlJsWJr7Q++WeWqtqZk9Ym22RO9wmy7RPntZ5L3+cIkBbVVb3yPWT3oyU0c0nfffZnh+v2we/vCc2NDjVBEuMQA6LjEAOi4xADouMQC6Atlzf/BQtUh5mtpXjTeP1puu0b8MlxgAHZcYAB2XGAAdlxgAXYHPnPsMylQRLjEAOi4xADouMQA6LjEAugLKlDK1AnQFlCllagXoCihTytQK0BVQppSpFaAroEwpUytAV0CZUqZWgK6AMqVMrQBdAWVKmVoBugLKlDK1AnQFlCllagXoCihTytQK0BVQppSpFaArUD73sz1iX33k6tWQlakyXGIAdFxiAHRcYgB0XGIAdAWq5368R+xVq4syVYVLDICOSwyAjksMgI5LDICuQPXcz/aIdU6I2UeUqSJcYgB0XGIAdFxiAHRcYgB0BcqPU1dNxC/DjnT2DqOPNfmH3i1DHb1bBrrb9Q5Tdx+4KC4x4Ef0DvukxUxd7RH7/H7Vit7Q41QRLjEAOi4xADouMQA6LjEAugL1c/9hj1jfHn3/PrhIV6aKcIkB0HGJAdBxiQHQcYkB0BX4zLnPoEwV4RIDoOMSA6DjEgOg4xIDoCugTClTK0BXQJlSplaAroAypUytAF0BZUqZWgG6AsqUMrUCdAWUKWVqBegKKFPK1ArQFVCmlKkVoCugTClTK0BXQJlSplaAroAypUytAF0BZUqZWgG6Atlz/7Fl2D7bnxuprns8HWWqCJcYAB2XGAAdlxgAHZcYAF2B5Lm/bhk+IV/ad/hGcIkB0HGJAdBxiQHQcYkB0BVInvvrlmF2erZuqkGu/nwCercMdfRuGero3TLU0btlqLsrXGIAdFxiAHRcYgB0XGIAdCUYgpjrluHLjvTdw+A3Z4QIOc5ahj/Ey54ZlSlRx6/Kp5ZhPOPtLWFtuCdNCCGEEEIIIYQQQgghNshu9/8BB3A4T2DCtQAAAAAASUVORK5CYII=;" vertex="1" parent="1">
          <mxGeometry x="378.000712446733" y="78.84680775035497" width="300" height="211.26" as="geometry" />
        </mxCell>
      </root>
    </mxGraphModel>
  </diagram>
</mxfile>
